<?xml version="1.0" encoding="UTF-8"?>
<svg id="Layer_1" xmlns="http://www.w3.org/2000/svg" version="1.1" xmlns:xlink="http://www.w3.org/1999/xlink" viewBox="0 0 105.28 104.26">
  <!-- Generator: Adobe Illustrator 30.0.0, SVG Export Plug-In . SVG Version: 2.1.1 Build 123)  -->
  <defs>
    <style>
      .st0 {
        fill: #d58d8a;
      }

      .st0, .st1 {
        stroke: #821618;
        stroke-miterlimit: 10;
        stroke-width: 3px;
      }

      .st1 {
        fill: url(#New_Gradient_Swatch_1);
      }
    </style>
    <linearGradient id="New_Gradient_Swatch_1" data-name="New Gradient Swatch 1" x1="4.64" y1="52.13" x2="100.64" y2="52.13" gradientUnits="userSpaceOnUse">
      <stop offset="0" stop-color="#3584e4"/>
      <stop offset="1" stop-color="#1a5fb4"/>
    </linearGradient>
  </defs>
  <circle class="st1" cx="52.64" cy="52.13" r="48"/>
  <path class="st0" d="M78.72,70.81l-17.64-17.64,17.64-17.64c2.15-2.15,2.15-5.63,0-7.78s-5.63-2.15-7.78,0l-17.64,17.64-17.64-17.64c-2.15-2.15-5.63-2.15-7.78,0s-2.15,5.63,0,7.78l17.64,17.64-17.64,17.64c-1.07,1.07-1.61,2.48-1.61,3.89s.54,2.82,1.61,3.89c2.15,2.15,5.63,2.15,7.78,0l17.64-17.64,17.64,17.64c1.07,1.07,2.48,1.61,3.89,1.61s2.82-.54,3.89-1.61c2.15-2.15,2.15-5.63,0-7.78Z"/>
</svg>