<?xml version="1.0" encoding="UTF-8"?>
<svg id="Layer_1" xmlns="http://www.w3.org/2000/svg" version="1.1" xmlns:xlink="http://www.w3.org/1999/xlink" viewBox="0 0 128 128">
  <!-- Generator: Adobe Illustrator 30.0.0, SVG Export Plug-In . SVG Version: 2.1.1 Build 123)  -->
  <defs>
    <style>
      .st0 {
        fill: #f9f06b;
        stroke: #9c6e00;
        stroke-width: 2.12px;
      }

      .st1 {
        fill: none;
        stroke: #103a73;
        stroke-width: 2.4px;
      }

      .st2 {
        fill: url(#linear-gradient);
      }
    </style>
    <linearGradient id="linear-gradient" x1="-188.33" y1="319.11" x2="-188.33" y2="317.91" gradientTransform="translate(16637 30641) scale(88 -96)" gradientUnits="userSpaceOnUse">
      <stop offset="0" stop-color="#3584e4"/>
      <stop offset="1" stop-color="#1a5fb4"/>
    </linearGradient>
  </defs>
  <rect class="st2" x="11.16" y="6.36" width="105.67" height="115.28" rx="14.41" ry="14.41"/>
  <rect class="st1" x="11.16" y="6.36" width="105.67" height="115.28" rx="14.41" ry="14.41"/>
  <g>
    <path class="st0" d="M55.29,53.41c-2.37,0-4.29,1.92-4.29,4.29v25.74c0,2.37,1.92,4.29,4.29,4.29s4.29-1.92,4.29-4.29v-25.74c0-2.37-1.92-4.29-4.29-4.29Z"/>
    <path class="st0" d="M72.45,53.41c-2.37,0-4.29,1.92-4.29,4.29v25.74c0,2.37,1.92,4.29,4.29,4.29s4.29-1.92,4.29-4.29v-25.74c0-2.37-1.92-4.29-4.29-4.29Z"/>
    <path class="st0" d="M102.48,31.96h-17.16v-4.29c0-7.1-5.77-12.87-12.87-12.87h-17.16c-7.1,0-12.87,5.77-12.87,12.87v4.29h-17.16c-2.37,0-4.29,1.92-4.29,4.29s1.92,4.29,4.29,4.29h4.29v55.76c0,7.1,5.77,12.87,12.87,12.87h42.9c7.1,0,12.87-5.77,12.87-12.87v-55.76h4.29c2.37,0,4.29-1.92,4.29-4.29s-1.92-4.29-4.29-4.29ZM51,27.67c0-2.36,1.92-4.29,4.29-4.29h17.16c2.37,0,4.29,1.92,4.29,4.29v4.29h-25.74v-4.29ZM89.61,96.3c0,2.37-1.92,4.29-4.29,4.29h-42.9c-2.36,0-4.29-1.92-4.29-4.29v-55.76h51.47v55.76Z"/>
  </g>
</svg>