<?xml version="1.0" encoding="UTF-8"?>
<svg id="Layer_1" xmlns="http://www.w3.org/2000/svg" version="1.1" xmlns:xlink="http://www.w3.org/1999/xlink" viewBox="0 0 128 128">
  <!-- Generator: Adobe Illustrator 30.0.0, SVG Export Plug-In . SVG Version: 2.1.1 Build 123)  -->
  <defs>
    <style>
      .st0 {
        fill: #f6d32d;
      }

      .st1 {
        fill: #f9f06b;
        stroke: #9c6e00;
        stroke-width: 2.12px;
      }

      .st2 {
        fill: #16315e;
      }

      .st3 {
        fill: none;
        stroke: #103a73;
        stroke-width: 2.4px;
      }

      .st4 {
        fill: url(#linear-gradient);
      }
    </style>
    <linearGradient id="linear-gradient" x1="-188.33" y1="319.11" x2="-188.33" y2="317.91" gradientTransform="translate(16637 30641) scale(88 -96)" gradientUnits="userSpaceOnUse">
      <stop offset="0" stop-color="#3584e4"/>
      <stop offset="1" stop-color="#1a5fb4"/>
    </linearGradient>
  </defs>
  <rect class="st4" x="11.16" y="6.36" width="105.67" height="115.28" rx="14.41" ry="14.41"/>
  <rect class="st3" x="11.16" y="6.36" width="105.67" height="115.28" rx="14.41" ry="14.41"/>
  <rect class="st2" x="58" y="6.36" width="12.01" height="115.28"/>
  <g>
    <rect class="st0" x="47.19" y="13.57" width="10.81" height="6" rx="1.2" ry="1.2"/>
    <rect class="st0" x="70" y="13.57" width="10.81" height="6" rx="1.2" ry="1.2"/>
    <rect class="st0" x="47.19" y="25.57" width="10.81" height="6" rx="1.2" ry="1.2"/>
    <rect class="st0" x="70" y="25.57" width="10.81" height="6" rx="1.2" ry="1.2"/>
    <rect class="st0" x="47.19" y="37.58" width="10.81" height="6" rx="1.2" ry="1.2"/>
    <rect class="st0" x="70" y="37.58" width="10.81" height="6" rx="1.2" ry="1.2"/>
  </g>
  <path class="st1" d="M86.9,73.56h-14.62v-14.62c0-3.12-2.53-5.65-5.65-5.65h-5.42c-3.12,0-5.65,2.53-5.65,5.65v14.62h-14.62c-3.12,0-5.65,2.53-5.65,5.65v5.42c0,3.12,2.53,5.65,5.65,5.65h14.62v14.62c0,3.12,2.53,5.65,5.65,5.65h5.42c3.12,0,5.65-2.53,5.65-5.65v-14.62h14.62c3.12,0,5.65-2.53,5.65-5.65v-5.42c0-3.12-2.53-5.65-5.65-5.65Z"/>
</svg>