<?xml version="1.0" encoding="UTF-8"?>
<svg id="Layer_1" xmlns="http://www.w3.org/2000/svg" version="1.1" xmlns:xlink="http://www.w3.org/1999/xlink" viewBox="0 0 128 128">
  <!-- Generator: Adobe Illustrator 30.0.0, SVG Export Plug-In . SVG Version: 2.1.1 Build 123)  -->
  <defs>
    <style>
      .st0 {
        fill: none;
        stroke: #103a73;
        stroke-width: 2.4px;
      }

      .st1 {
        fill: url(#linear-gradient);
      }

      .st2 {
        fill: #f9f06b;
        stroke: #9c6e00;
        stroke-width: 1.87px;
      }
    </style>
    <linearGradient id="linear-gradient" x1="-188.32" y1="319.12" x2="-188.32" y2="317.92" gradientTransform="translate(16637 30641) scale(88 -96)" gradientUnits="userSpaceOnUse">
      <stop offset="0" stop-color="#3584e4"/>
      <stop offset="1" stop-color="#1a5fb4"/>
    </linearGradient>
  </defs>
  <rect class="st1" x="12.19" y="5.34" width="105.67" height="115.28" rx="14.41" ry="14.41"/>
  <rect class="st0" x="11.16" y="6.36" width="105.67" height="115.28" rx="14.41" ry="14.41"/>
  <g>
    <path class="st2" d="M64.02,23.89c-23.51,0-42.64,19.13-42.64,42.64s19.13,42.64,42.64,42.64,42.64-19.13,42.64-42.64-19.13-42.64-42.64-42.64ZM64.02,101.42c-19.24,0-34.89-15.65-34.89-34.89s15.65-34.89,34.89-34.89,34.89,15.65,34.89,34.89-15.65,34.89-34.89,34.89Z"/>
    <path class="st2" d="M64.02,62.66c-2.14,0-3.88,1.74-3.88,3.88v15.5c0,2.14,1.74,3.88,3.88,3.88s3.88-1.73,3.88-3.88v-15.5c0-2.14-1.74-3.88-3.88-3.88Z"/>
    <path class="st2" d="M64.06,47.15h-.04c-2.14,0-3.86,1.74-3.86,3.88s1.75,3.88,3.9,3.88,3.88-1.74,3.88-3.88-1.74-3.88-3.88-3.88Z"/>
  </g>
</svg>