<?xml version="1.0" encoding="UTF-8"?>
<svg id="Layer_1" xmlns="http://www.w3.org/2000/svg" version="1.1" xmlns:xlink="http://www.w3.org/1999/xlink" viewBox="0 0 128 128">
  <!-- Generator: Adobe Illustrator 30.0.0, SVG Export Plug-In . SVG Version: 2.1.1 Build 123)  -->
  <defs>
    <style>
      .st0 {
        fill: #f6d32d;
      }

      .st1 {
        fill: #f9f06b;
        stroke: #9c6e00;
        stroke-width: 2.12px;
      }

      .st2 {
        fill: #16315e;
      }

      .st3 {
        fill: none;
        stroke: #103a73;
        stroke-width: 2.4px;
      }

      .st4 {
        fill: url(#linear-gradient);
      }
    </style>
    <linearGradient id="linear-gradient" x1="-188.33" y1="319.11" x2="-188.33" y2="317.91" gradientTransform="translate(16637 30641) scale(88 -96)" gradientUnits="userSpaceOnUse">
      <stop offset="0" stop-color="#3584e4"/>
      <stop offset="1" stop-color="#1a5fb4"/>
    </linearGradient>
  </defs>
  <rect class="st4" x="11.16" y="6.36" width="105.67" height="115.28" rx="14.41" ry="14.41"/>
  <rect class="st3" x="11.16" y="6.36" width="105.67" height="115.28" rx="14.41" ry="14.41"/>
  <path class="st2" d="M24.68,6.96s35.74,35.49,35.74,113.62c0,0,7.4-76.85,45.19-112.6l-5.87-1.4-75.06.38Z"/>
  <g>
    <rect class="st0" x="29.48" y="16.64" width="10.81" height="6" rx="1.2" ry="1.2" transform="translate(-4.85 14.72) rotate(-22.32)"/>
    <rect class="st0" x="34.04" y="27.74" width="10.81" height="6" rx="1.2" ry="1.2" transform="translate(-8.72 17.29) rotate(-22.32)"/>
    <rect class="st0" x="38.6" y="38.85" width="10.81" height="6" rx="1.2" ry="1.2" transform="translate(-12.6 19.85) rotate(-22.32)"/>
  </g>
  <g>
    <rect class="st0" x="87.11" y="16.64" width="10.81" height="6" rx="1.2" ry="1.2" transform="translate(170.64 72.95) rotate(-157.68)"/>
    <rect class="st0" x="82.55" y="27.74" width="10.81" height="6" rx="1.2" ry="1.2" transform="translate(157.64 92.6) rotate(-157.68)"/>
    <rect class="st0" x="77.99" y="38.85" width="10.81" height="6" rx="1.2" ry="1.2" transform="translate(144.64 112.25) rotate(-157.68)"/>
  </g>
  <path class="st1" d="M46.69,85.72l14.03,24.31c.96,1.67,3.37,1.67,4.33,0l14.03-24.31c.96-1.67-.24-3.75-2.17-3.75h-5.99v-14.93c0-2.33-1.89-4.22-4.22-4.22h-7.9c-2.33,0-4.22,1.89-4.22,4.22v14.93h-5.74c-1.93,0-3.13,2.09-2.17,3.75Z"/>
</svg>