<?xml version="1.0" encoding="UTF-8"?>
<svg id="Layer_1" xmlns="http://www.w3.org/2000/svg" version="1.1" xmlns:xlink="http://www.w3.org/1999/xlink" viewBox="0 0 128 128">
  <!-- Generator: Adobe Illustrator 30.0.0, SVG Export Plug-In . SVG Version: 2.1.1 Build 123)  -->
  <defs>
    <style>
      .st0 {
        fill: none;
        stroke: #103a73;
        stroke-width: 2.4px;
      }

      .st1 {
        fill: url(#linear-gradient);
      }

      .st2 {
        fill: #f9f06b;
        stroke: #9c6e00;
        stroke-width: 1.87px;
      }
    </style>
    <linearGradient id="linear-gradient" x1="-188.32" y1="319.12" x2="-188.32" y2="317.92" gradientTransform="translate(16637 30641) scale(88 -96)" gradientUnits="userSpaceOnUse">
      <stop offset="0" stop-color="#3584e4"/>
      <stop offset="1" stop-color="#1a5fb4"/>
    </linearGradient>
  </defs>
  <rect class="st1" x="12.19" y="5.34" width="105.67" height="115.28" rx="14.41" ry="14.41"/>
  <rect class="st0" x="11.16" y="6.36" width="105.67" height="115.28" rx="14.41" ry="14.41"/>
  <g>
    <path class="st2" d="M103.15,36.13s-.05-.05-.09-.09l-4.64-4.65c-3.13-3.15-8.24-3.17-11.43-.01l-59.31,59.31c-3.15,3.12-3.18,8.23-.01,11.43l4.63,4.62c1.49,1.54,3.49,2.4,5.64,2.43h.11c2.1,0,4.08-.8,5.71-2.39l42.4-42.4s0,0,0,0c0,0,0,0,0,0l16.86-16.86c1.54-1.49,2.4-3.49,2.43-5.64.03-2.14-.78-4.16-2.31-5.73ZM38.54,101.68c-.24.24-.79.23-1.07-.05l-4.68-4.68c-.3-.3-.29-.79.02-1.1l39.84-39.84,5.78,5.78-39.88,39.88ZM97.91,42.31l-14.33,14.33-5.78-5.78,14.35-14.35c.15-.15.34-.22.54-.22s.41.08.56.24l4.66,4.66h0s0,0,0,0l.04.04c.24.25.23.79-.05,1.06Z"/>
    <path class="st2" d="M32.57,58.15h3.64v3.64c0,2.01,1.63,3.64,3.64,3.64s3.64-1.63,3.64-3.64v-3.64h3.64c2.01,0,3.64-1.63,3.64-3.64s-1.63-3.64-3.64-3.64h-3.64v-3.64c0-2.01-1.63-3.64-3.64-3.64s-3.64,1.63-3.64,3.64v3.64h-3.64c-2.01,0-3.64,1.63-3.64,3.64s1.63,3.64,3.64,3.64Z"/>
    <path class="st2" d="M98.16,80.01h-3.64v-3.64c0-2.01-1.63-3.64-3.64-3.64s-3.64,1.63-3.64,3.64v3.64h-3.64c-2.01,0-3.64,1.63-3.64,3.64s1.63,3.64,3.64,3.64h3.64v3.64c0,2.01,1.63,3.64,3.64,3.64s3.64-1.63,3.64-3.64v-3.64h3.64c2.01,0,3.64-1.63,3.64-3.64s-1.63-3.64-3.64-3.64Z"/>
    <path class="st2" d="M54.43,39.93c0,2.01,1.63,3.64,3.64,3.64s3.64-1.63,3.64-3.64c2.01,0,3.64-1.63,3.64-3.64s-1.63-3.64-3.64-3.64c0-2.01-1.63-3.64-3.64-3.64s-3.64,1.63-3.64,3.64c-2.01,0-3.64,1.63-3.64,3.64s1.63,3.64,3.64,3.64Z"/>
  </g>
</svg>