<?xml version="1.0" encoding="UTF-8"?>
<svg id="Layer_1" xmlns="http://www.w3.org/2000/svg" version="1.1" xmlns:xlink="http://www.w3.org/1999/xlink" viewBox="0 0 128 128">
  <!-- Generator: Adobe Illustrator 30.0.0, SVG Export Plug-In . SVG Version: 2.1.1 Build 123)  -->
  <defs>
    <style>
      .st0 {
        fill: #f9f06b;
        stroke: #9c6e00;
        stroke-width: 2.12px;
      }

      .st1 {
        fill: none;
        stroke: #103a73;
        stroke-width: 2.4px;
      }

      .st2 {
        fill: url(#linear-gradient);
      }
    </style>
    <linearGradient id="linear-gradient" x1="-188.33" y1="319.11" x2="-188.33" y2="317.91" gradientTransform="translate(16637 30641) scale(88 -96)" gradientUnits="userSpaceOnUse">
      <stop offset="0" stop-color="#3584e4"/>
      <stop offset="1" stop-color="#1a5fb4"/>
    </linearGradient>
  </defs>
  <rect class="st2" x="11.16" y="6.36" width="105.67" height="115.28" rx="14.41" ry="14.41"/>
  <rect class="st1" x="11.16" y="6.36" width="105.67" height="115.28" rx="14.41" ry="14.41"/>
  <path class="st0" d="M102.83,103.16l-14.92-20.92c-1.59-2.23-4.12-3.4-6.68-3.35l-2.06-2.9c6.94-6.37,11.29-15.51,11.29-25.66,0-19.22-15.63-34.85-34.85-34.85S20.77,31.12,20.77,50.34s15.63,34.85,34.85,34.85c5.85,0,11.36-1.45,16.2-4.01l2.08,2.93c-.89,2.4-.61,5.19.99,7.43l14.92,20.92c1.56,2.19,4.02,3.36,6.52,3.36,1.61,0,3.23-.48,4.64-1.49,3.6-2.57,4.43-7.56,1.87-11.16ZM32.77,50.34c0-12.6,10.25-22.85,22.85-22.85s22.85,10.25,22.85,22.85-10.25,22.85-22.85,22.85-22.85-10.25-22.85-22.85Z"/>
</svg>