<?xml version="1.0" encoding="UTF-8"?>
<svg id="Layer_1" xmlns="http://www.w3.org/2000/svg" version="1.1" xmlns:xlink="http://www.w3.org/1999/xlink" viewBox="0 0 128 128">
  <!-- Generator: Adobe Illustrator 30.0.0, SVG Export Plug-In . SVG Version: 2.1.1 Build 123)  -->
  <defs>
    <style>
      .st0 {
        fill: none;
        stroke: #103a73;
        stroke-width: 2.4px;
      }

      .st1 {
        fill: url(#linear-gradient);
      }

      .st2 {
        fill: #f9f06b;
        stroke: #9c6e00;
        stroke-width: 1.87px;
      }
    </style>
    <linearGradient id="linear-gradient" x1="-188.32" y1="319.12" x2="-188.32" y2="317.92" gradientTransform="translate(16637 30641) scale(88 -96)" gradientUnits="userSpaceOnUse">
      <stop offset="0" stop-color="#3584e4"/>
      <stop offset="1" stop-color="#1a5fb4"/>
    </linearGradient>
  </defs>
  <rect class="st1" x="12.19" y="5.34" width="105.67" height="115.28" rx="14.41" ry="14.41"/>
  <rect class="st0" x="11.16" y="6.36" width="105.67" height="115.28" rx="14.41" ry="14.41"/>
  <path class="st2" d="M32.04,105.81c-3.19,0-6.39-1.22-8.82-3.65-4.86-4.87-4.86-12.78,0-17.64l29.77-29.77c-4.53-13.44,1.8-28.43,14.99-34.4,5.94-2.69,12.67-3.22,18.95-1.49,2.15.59,3.78,2.23,4.35,4.37.59,2.2-.07,4.59-1.71,6.24l-12.4,12.39,6.37,6.36,12.36-12.41c1.62-1.64,4.01-2.3,6.22-1.72,2.16.57,3.8,2.2,4.39,4.36,4.09,14.87-4.69,30.3-19.56,34.39-5.37,1.48-11.07,1.31-16.33-.46l-29.77,29.77c-2.43,2.43-5.63,3.65-8.82,3.65ZM79.52,25.87c-2.83,0-5.64.6-8.25,1.78-10.04,4.54-14.51,16.41-9.97,26.45.69,1.52.36,3.3-.82,4.47l-31.62,31.62c-1.75,1.75-1.75,4.59,0,6.34,1.75,1.75,4.59,1.75,6.34,0l31.61-31.61c1.18-1.18,2.96-1.5,4.47-.82,4.24,1.92,9.05,2.3,13.54,1.06,9.61-2.64,15.65-11.91,14.56-21.51l-10.25,10.25c-3.11,3.05-8.13,3.05-11.22.03l-6.42-6.42c-3.05-3.11-3.05-8.13-.03-11.22l.03-.03,10.26-10.25c-.75-.08-1.49-.13-2.24-.13ZM101.57,41.46h0s0,0,0,0Z"/>
</svg>