<?xml version="1.0" encoding="UTF-8"?>
<svg id="Layer_1" xmlns="http://www.w3.org/2000/svg" version="1.1" xmlns:xlink="http://www.w3.org/1999/xlink" viewBox="0 0 128 128">
  <!-- Generator: Adobe Illustrator 30.0.0, SVG Export Plug-In . SVG Version: 2.1.1 Build 123)  -->
  <defs>
    <style>
      .st0 {
        fill: none;
        stroke: #103a73;
        stroke-width: 2.4px;
      }

      .st1 {
        fill: url(#linear-gradient);
      }

      .st2 {
        fill: #f9f06b;
        stroke: #9c6e00;
        stroke-width: 1.87px;
      }
    </style>
    <linearGradient id="linear-gradient" x1="-188.32" y1="319.12" x2="-188.32" y2="317.92" gradientTransform="translate(16637 30641) scale(88 -96)" gradientUnits="userSpaceOnUse">
      <stop offset="0" stop-color="#3584e4"/>
      <stop offset="1" stop-color="#1a5fb4"/>
    </linearGradient>
  </defs>
  <rect class="st1" x="12.19" y="5.34" width="105.67" height="115.28" rx="14.41" ry="14.41"/>
  <rect class="st0" x="11.16" y="6.36" width="105.67" height="115.28" rx="14.41" ry="14.41"/>
  <g>
    <path class="st2" d="M92.64,29.34c-6.64,0-15.69-4.01-22.54-10-3.29-2.81-8.07-2.81-11.4.03-6.72,5.87-15.98,9.97-22.51,9.97-4.45,0-8.06,3.62-8.06,8.06v28.22c0,19,11,32.04,33.55,39.83.9.33,1.84.5,2.8.5.88,0,1.77-.14,2.63-.43,22.6-7.88,33.59-20.93,33.59-39.89v-28.22c0-4.45-3.62-8.06-8.06-8.06ZM92.64,65.63c0,15.32-8.95,25.58-28.24,32.24-19.25-6.65-28.21-16.89-28.21-32.24v-28.22c8.58,0,19.49-4.7,27.78-11.93.13-.12.3-.17.46-.17.15,0,.29.05.4.14,8.31,7.27,19.23,11.96,27.81,11.96v28.22Z"/>
    <path class="st2" d="M55.17,58.75c-1.57-1.57-4.13-1.57-5.7,0s-1.57,4.13,0,5.7l8.06,8.06c.79.79,1.82,1.18,2.85,1.18s2.06-.39,2.85-1.18l16.13-16.13c1.57-1.57,1.57-4.13,0-5.7s-4.13-1.57-5.7,0l-13.28,13.28-5.21-5.21Z"/>
  </g>
</svg>