<?xml version="1.0" encoding="UTF-8"?>
<svg id="Layer_1" xmlns="http://www.w3.org/2000/svg" version="1.1" xmlns:xlink="http://www.w3.org/1999/xlink" viewBox="0 0 128 128">
  <!-- Generator: Adobe Illustrator 30.0.0, SVG Export Plug-In . SVG Version: 2.1.1 Build 123)  -->
  <defs>
    <style>
      .st0 {
        fill: none;
        stroke: #103a73;
        stroke-width: 2.4px;
      }

      .st1 {
        fill: url(#linear-gradient);
      }

      .st2 {
        fill: #f9f06b;
        stroke: #9c6e00;
        stroke-width: 1.87px;
      }
    </style>
    <linearGradient id="linear-gradient" x1="-188.32" y1="319.12" x2="-188.32" y2="317.92" gradientTransform="translate(16637 30641) scale(88 -96)" gradientUnits="userSpaceOnUse">
      <stop offset="0" stop-color="#3584e4"/>
      <stop offset="1" stop-color="#1a5fb4"/>
    </linearGradient>
  </defs>
  <rect class="st1" x="12.19" y="5.34" width="105.67" height="115.28" rx="14.41" ry="14.41"/>
  <rect class="st0" x="11.16" y="6.36" width="105.67" height="115.28" rx="14.41" ry="14.41"/>
  <path class="st2" d="M101.33,65c-1.75-2.79-3.57-5.67-3.57-8.34v-8.64c0-2.75-1.51-5.12-3.73-6.42v-8.49c0-4.11-3.34-7.45-7.45-7.45h-7.45c-4.11,0-7.45,3.34-7.45,7.45v8.49c-2.22,1.29-3.73,3.67-3.73,6.42v3.73h-7.45v-3.73c0-2.75-1.51-5.12-3.73-6.42v-8.49c0-4.11-3.34-7.45-7.45-7.45h-7.45c-4.11,0-7.45,3.34-7.45,7.45v8.49c-2.22,1.29-3.73,3.67-3.73,6.42v8.64c0,2.66-1.81,5.55-3.57,8.34-1.91,3.04-3.89,6.18-3.89,9.66v14.35c0,6.16,5.01,11.18,11.18,11.18h14.91c6.16,0,11.18-5.01,11.18-11.18v-7.45h7.45v7.45c0,6.16,5.01,11.18,11.18,11.18h14.91c6.16,0,11.18-5.01,11.18-11.18v-14.35c0-3.48-1.98-6.62-3.89-9.66ZM97.64,74.1h-22.24v-26.08h14.91v8.64c0,4.81,2.5,8.79,4.71,12.3,1.19,1.89,2.35,3.79,2.63,5.14ZM86.58,33.11v7.45h-7.45v-7.45h7.45ZM49.32,33.11v7.45h-7.45v-7.45h7.45ZM33.43,68.97c2.21-3.51,4.71-7.49,4.71-12.3v-8.64h14.91v26.08h-22.24c.28-1.34,1.44-3.25,2.63-5.14ZM53.04,89.01c0,2.06-1.67,3.73-3.73,3.73h-14.91c-2.05,0-3.73-1.67-3.73-3.73v-7.45h22.36v7.45ZM60.5,74.1v-14.91h7.45v14.91h-7.45ZM94.03,92.74h-14.91c-2.06,0-3.73-1.67-3.73-3.73v-7.45h22.36v7.45c0,2.06-1.67,3.73-3.73,3.73Z"/>
</svg>